<?xml version="1.0" encoding="UTF-8"?>
<svg xmlns="http://www.w3.org/2000/svg" xmlns:xlink="http://www.w3.org/1999/xlink" width="60px" height="59px" viewBox="0 0 60 59" version="1.1">
<g id="surface1">
<path style=" stroke:none;fill-rule:nonzero;fill:rgb(88.627452%,23.529412%,41.960785%);fill-opacity:1;" d="M 40.429688 2.902344 C 40.625 2.972656 40.816406 3.042969 41.015625 3.117188 C 42.140625 3.554688 42.902344 4.046875 43.6875 4.964844 C 43.402344 5.15625 43.113281 5.351562 42.816406 5.550781 C 42.515625 6.558594 42.492188 7.523438 42.5 8.574219 C 42.503906 9.03125 42.503906 9.03125 42.507812 9.496094 C 42.507812 9.824219 42.511719 10.152344 42.515625 10.488281 C 42.519531 11.1875 42.523438 11.886719 42.527344 12.589844 C 42.535156 13.6875 42.542969 14.785156 42.550781 15.882812 C 42.5625 16.945312 42.566406 18.007812 42.570312 19.070312 C 42.578125 19.554688 42.578125 19.554688 42.582031 20.050781 C 42.597656 25.3125 42.597656 25.3125 41.011719 27.308594 C 39.65625 28.675781 38.347656 29.242188 36.425781 29.316406 C 34.320312 29.246094 32.710938 28.613281 31.164062 27.164062 C 30.679688 26.441406 30.296875 25.679688 29.910156 24.898438 C 29.738281 24.566406 29.738281 24.566406 29.566406 24.226562 C 29.222656 23.554688 28.882812 22.875 28.542969 22.199219 C 28.359375 21.835938 28.175781 21.472656 27.988281 21.109375 C 27.386719 19.921875 26.800781 18.722656 26.214844 17.523438 C 26.058594 17.207031 25.902344 16.890625 25.742188 16.566406 C 25.304688 15.671875 24.871094 14.78125 24.4375 13.886719 C 24.261719 13.527344 24.085938 13.167969 23.914062 12.808594 C 23.664062 12.300781 23.417969 11.792969 23.171875 11.285156 C 23.03125 10.988281 22.886719 10.691406 22.738281 10.386719 C 22.425781 9.636719 22.425781 9.636719 22.425781 8.761719 C 22.042969 8.761719 21.660156 8.761719 21.261719 8.761719 C 21.152344 9.125 21.152344 9.125 21.035156 9.496094 C 20.636719 10.640625 20.144531 11.71875 19.625 12.816406 C 19.535156 13.003906 19.445312 13.195312 19.355469 13.390625 C 18.679688 14.820312 17.972656 16.238281 17.265625 17.652344 C 15.972656 20.234375 14.710938 22.832031 13.453125 25.429688 C 13.222656 25.90625 12.992188 26.382812 12.761719 26.855469 C 11.347656 29.765625 9.945312 32.679688 8.574219 35.609375 C 7.816406 37.210938 6.996094 38.765625 6.117188 40.308594 C 5.160156 40.394531 4.570312 40.4375 3.75 39.90625 C 0.785156 35.746094 1.097656 29.636719 1.636719 24.773438 C 2.796875 17.835938 7.019531 10.796875 12.695312 6.671875 C 20.964844 0.867188 30.902344 -0.558594 40.429688 2.902344 Z M 40.429688 2.902344 "/>
<path style=" stroke:none;fill-rule:nonzero;fill:rgb(88.235295%,44.705883%,34.901962%);fill-opacity:1;" d="M 23.28125 33.199219 C 23.636719 33.195312 23.992188 33.195312 24.359375 33.191406 C 25.109375 33.191406 25.863281 33.1875 26.613281 33.1875 C 27.753906 33.1875 28.894531 33.175781 30.035156 33.164062 C 30.769531 33.164062 31.503906 33.164062 32.234375 33.164062 C 32.574219 33.15625 32.910156 33.152344 33.257812 33.148438 C 35.914062 33.164062 38.296875 33.644531 40.578125 35.066406 C 41.722656 36.324219 42.578125 37.652344 43.398438 39.136719 C 43.597656 39.492188 43.597656 39.492188 43.800781 39.855469 C 45.910156 43.667969 47.363281 46.996094 46.601562 51.40625 C 45.722656 53.636719 44.183594 54.421875 42.074219 55.378906 C 38.875 56.726562 35.726562 57.636719 32.257812 57.921875 C 31.964844 57.945312 31.671875 57.972656 31.371094 57.996094 C 28.980469 58.164062 26.820312 58.050781 24.464844 57.539062 C 24.117188 57.46875 23.765625 57.394531 23.402344 57.320312 C 18.976562 56.277344 15.140625 54.316406 11.652344 51.40625 C 11.441406 51.238281 11.230469 51.074219 11.015625 50.902344 C 9.867188 49.96875 8.867188 49.140625 8.65625 47.59375 C 8.5625 45.398438 9.230469 43.84375 10.210938 41.914062 C 10.347656 41.628906 10.484375 41.347656 10.625 41.054688 C 12.117188 38.019531 13.640625 35.21875 16.894531 33.882812 C 19.007812 33.242188 21.085938 33.203125 23.28125 33.199219 Z M 23.28125 33.199219 "/>
<path style=" stroke:none;fill-rule:nonzero;fill:rgb(89.019608%,54.901963%,27.843139%);fill-opacity:1;" d="M 49.476562 10.105469 C 51.453125 10.476562 52.753906 12.191406 53.882812 13.726562 C 58.300781 20.632812 59.464844 28.65625 57.746094 36.636719 C 56.71875 40.644531 54.90625 44.242188 52.136719 47.316406 C 51.140625 46.164062 50.480469 44.988281 49.824219 43.628906 C 49.722656 43.421875 49.621094 43.21875 49.519531 43.003906 C 49.222656 42.398438 48.929688 41.792969 48.640625 41.183594 C 48.492188 40.871094 48.339844 40.558594 48.1875 40.234375 C 47.175781 38.070312 46.535156 36.148438 46.5 33.730469 C 46.496094 33.519531 46.492188 33.3125 46.488281 33.09375 C 46.476562 32.410156 46.46875 31.722656 46.460938 31.035156 C 46.453125 30.554688 46.445312 30.074219 46.441406 29.59375 C 46.425781 28.585938 46.414062 27.578125 46.402344 26.574219 C 46.386719 25.289062 46.367188 24.003906 46.347656 22.722656 C 46.332031 21.730469 46.316406 20.734375 46.304688 19.742188 C 46.300781 19.269531 46.292969 18.796875 46.285156 18.324219 C 46.183594 12.027344 46.183594 12.027344 47.28125 10.59375 C 47.96875 10.070312 48.636719 10.117188 49.476562 10.105469 Z M 49.476562 10.105469 "/>
<path style=" stroke:none;fill-rule:nonzero;fill:rgb(83.92157%,24.313726%,41.960785%);fill-opacity:1;" d="M 21.261719 18.109375 C 21.648438 18.109375 22.03125 18.109375 22.425781 18.109375 C 23.101562 19.445312 23.769531 20.78125 24.429688 22.121094 C 24.746094 22.757812 25.066406 23.386719 25.386719 24.015625 C 25.578125 24.402344 25.769531 24.789062 25.957031 25.171875 C 26.050781 25.351562 26.144531 25.53125 26.242188 25.714844 C 26.65625 26.570312 26.824219 27.039062 26.613281 27.980469 C 26.214844 28.625 26.214844 28.625 25.339844 29.207031 C 24.679688 29.285156 24.679688 29.285156 23.914062 29.285156 C 23.496094 29.285156 23.496094 29.285156 23.070312 29.289062 C 22.78125 29.285156 22.488281 29.285156 22.191406 29.28125 C 21.761719 29.285156 21.761719 29.285156 21.320312 29.289062 C 18.4375 29.28125 18.4375 29.28125 17.183594 28.625 C 16.84375 27.957031 16.855469 27.617188 17.027344 26.898438 C 17.988281 24.632812 19.035156 22.40625 20.089844 20.183594 C 20.191406 19.972656 20.289062 19.761719 20.390625 19.546875 C 20.679688 18.984375 20.679688 18.984375 21.261719 18.109375 Z M 21.261719 18.109375 "/>
<path style=" stroke:none;fill-rule:nonzero;fill:rgb(65.490198%,34.117648%,34.509805%);fill-opacity:1;" d="M 32.914062 1.460938 C 35.816406 1.292969 38.425781 2.167969 41.105469 3.210938 C 41.292969 3.285156 41.484375 3.359375 41.679688 3.433594 C 42.679688 3.839844 43.074219 4.039062 43.6875 4.964844 C 43.402344 5.15625 43.113281 5.351562 42.816406 5.550781 C 42.515625 6.558594 42.492188 7.523438 42.5 8.574219 C 42.503906 8.878906 42.503906 9.183594 42.507812 9.496094 C 42.507812 9.824219 42.511719 10.152344 42.515625 10.488281 C 42.519531 11.1875 42.523438 11.886719 42.527344 12.589844 C 42.535156 13.6875 42.542969 14.785156 42.550781 15.882812 C 42.5625 16.945312 42.566406 18.007812 42.570312 19.070312 C 42.574219 19.394531 42.578125 19.71875 42.582031 20.050781 C 42.597656 25.3125 42.597656 25.3125 41.011719 27.308594 C 39.65625 28.675781 38.347656 29.242188 36.425781 29.316406 C 34.996094 29.273438 33.914062 28.945312 32.621094 28.332031 C 32.523438 28.140625 32.429688 27.945312 32.332031 27.746094 C 33.292969 27.84375 34.253906 27.941406 35.242188 28.039062 C 35.242188 28.230469 35.242188 28.425781 35.242188 28.625 C 35.433594 28.625 35.628906 28.625 35.824219 28.625 C 35.96875 28.335938 35.96875 28.335938 36.117188 28.039062 C 36.117188 28.230469 36.117188 28.425781 36.117188 28.625 C 38.167969 28.03125 38.167969 28.03125 39.613281 26.578125 C 39.996094 26.578125 40.378906 26.578125 40.777344 26.578125 C 41.3125 24.144531 41.453125 21.800781 41.46875 19.3125 C 41.476562 18.738281 41.484375 18.164062 41.492188 17.589844 C 41.503906 16.796875 41.511719 16.003906 41.515625 15.207031 C 41.53125 13.808594 41.546875 12.410156 41.566406 11.007812 C 41.574219 10.265625 41.582031 9.519531 41.589844 8.777344 C 41.59375 8.441406 41.597656 8.109375 41.601562 7.765625 C 41.601562 7.46875 41.605469 7.175781 41.609375 6.871094 C 41.652344 6.132812 41.652344 6.132812 41.941406 5.257812 C 41.75 5.066406 41.558594 4.871094 41.359375 4.671875 C 41.261719 4.480469 41.167969 4.289062 41.066406 4.089844 C 40.492188 4.378906 40.492188 4.378906 39.902344 4.671875 C 39.902344 4.480469 39.902344 4.289062 39.902344 4.089844 C 39.734375 4.191406 39.566406 4.292969 39.394531 4.398438 C 38.632812 4.71875 38.332031 4.652344 37.574219 4.382812 C 37.476562 3.707031 37.378906 3.03125 37.28125 2.335938 C 35.117188 2.046875 35.117188 2.046875 32.914062 1.753906 C 32.914062 1.65625 32.914062 1.558594 32.914062 1.460938 Z M 32.914062 1.460938 "/>
<path style=" stroke:none;fill-rule:nonzero;fill:rgb(69.411767%,43.137255%,29.803923%);fill-opacity:1;" d="M 46.601562 11.683594 C 46.699219 11.683594 46.792969 11.683594 46.894531 11.683594 C 46.894531 11.972656 46.898438 12.257812 46.898438 12.554688 C 46.914062 15.269531 46.9375 17.984375 46.960938 20.703125 C 46.976562 22.097656 46.984375 23.492188 46.992188 24.890625 C 47 26.238281 47.011719 27.585938 47.027344 28.933594 C 47.03125 29.449219 47.035156 29.960938 47.039062 30.476562 C 47.039062 31.195312 47.050781 31.917969 47.058594 32.640625 C 47.058594 32.847656 47.058594 33.058594 47.058594 33.277344 C 47.082031 34.589844 47.332031 35.632812 47.84375 36.84375 C 48.246094 37.859375 48.347656 38.613281 48.347656 39.722656 C 48.542969 39.820312 48.734375 39.914062 48.933594 40.015625 C 49.238281 40.589844 49.53125 41.175781 49.804688 41.765625 C 50 41.765625 50.191406 41.765625 50.386719 41.765625 C 50.457031 42.011719 50.523438 42.261719 50.59375 42.511719 C 50.6875 42.832031 50.78125 43.152344 50.878906 43.484375 C 50.972656 43.800781 51.0625 44.121094 51.15625 44.449219 C 51.480469 45.332031 51.480469 45.332031 52.324219 45.675781 C 52.550781 45.734375 52.777344 45.796875 53.007812 45.855469 C 52.5 46.988281 52.5 46.988281 51.84375 47.316406 C 46.550781 37.484375 46.550781 37.484375 46.503906 33.71875 C 46.5 33.40625 46.5 33.40625 46.496094 33.082031 C 46.484375 32.394531 46.476562 31.707031 46.472656 31.015625 C 46.464844 30.535156 46.457031 30.050781 46.453125 29.570312 C 46.4375 28.558594 46.425781 27.550781 46.417969 26.539062 C 46.40625 25.25 46.386719 23.964844 46.371094 22.675781 C 46.355469 21.679688 46.34375 20.683594 46.332031 19.6875 C 46.328125 19.210938 46.324219 18.734375 46.316406 18.261719 C 46.308594 17.59375 46.300781 16.929688 46.296875 16.261719 C 46.292969 15.886719 46.285156 15.507812 46.28125 15.117188 C 46.3125 13.949219 46.4375 12.839844 46.601562 11.683594 Z M 46.601562 11.683594 "/>
<path style=" stroke:none;fill-rule:nonzero;fill:rgb(77.64706%,38.039216%,38.82353%);fill-opacity:1;" d="M 41.652344 6.132812 C 41.746094 6.132812 41.84375 6.132812 41.941406 6.132812 C 41.988281 8.683594 42.023438 11.230469 42.046875 13.78125 C 42.058594 14.964844 42.074219 16.148438 42.09375 17.332031 C 42.117188 18.476562 42.128906 19.621094 42.136719 20.765625 C 42.140625 21.199219 42.144531 21.636719 42.15625 22.070312 C 42.25 25.898438 42.25 25.898438 40.96875 27.414062 C 39.621094 28.707031 38.285156 29.242188 36.425781 29.316406 C 34.996094 29.273438 33.914062 28.945312 32.621094 28.332031 C 32.523438 28.140625 32.429688 27.945312 32.332031 27.746094 C 33.292969 27.84375 34.253906 27.941406 35.242188 28.039062 C 35.242188 28.230469 35.242188 28.425781 35.242188 28.625 C 35.433594 28.625 35.628906 28.625 35.824219 28.625 C 35.96875 28.335938 35.96875 28.335938 36.117188 28.039062 C 36.117188 28.230469 36.117188 28.425781 36.117188 28.625 C 38.167969 28.03125 38.167969 28.03125 39.613281 26.578125 C 39.996094 26.578125 40.378906 26.578125 40.777344 26.578125 C 41.316406 24.136719 41.457031 21.78125 41.480469 19.28125 C 41.484375 18.90625 41.492188 18.527344 41.496094 18.136719 C 41.511719 17.144531 41.523438 16.152344 41.535156 15.15625 C 41.546875 14.140625 41.5625 13.121094 41.574219 12.101562 C 41.601562 10.113281 41.628906 8.125 41.652344 6.132812 Z M 41.652344 6.132812 "/>
<path style=" stroke:none;fill-rule:nonzero;fill:rgb(79.607844%,12.54902%,41.568628%);fill-opacity:1;" d="M 15.726562 4.671875 C 15.921875 4.769531 16.113281 4.867188 16.3125 4.964844 C 16.214844 5.253906 16.117188 5.542969 16.019531 5.839844 C 15.585938 5.976562 15.585938 5.976562 15.144531 6.117188 C 14.855469 6.21875 14.570312 6.320312 14.273438 6.425781 C 13.988281 7.019531 13.988281 7.019531 13.980469 7.59375 C 13.375 7.753906 12.859375 7.886719 12.234375 7.886719 C 12.039062 8.273438 11.847656 8.65625 11.652344 9.054688 C 11.457031 9.054688 11.265625 9.054688 11.066406 9.054688 C 11.066406 9.730469 11.066406 10.402344 11.066406 11.097656 C 10.875 11.097656 10.683594 11.097656 10.484375 11.097656 C 10.390625 11.292969 10.292969 11.484375 10.195312 11.683594 C 10 11.492188 9.808594 11.296875 9.613281 11.097656 C 9.015625 11.261719 9.015625 11.261719 8.445312 11.683594 C 8.207031 12.578125 8.207031 12.578125 8.15625 13.4375 C 7.964844 13.4375 7.769531 13.4375 7.574219 13.4375 C 7.574219 13.628906 7.574219 13.820312 7.574219 14.019531 C 6.566406 14.894531 6.566406 14.894531 5.824219 14.894531 C 5.71875 15.367188 5.71875 15.367188 5.605469 15.84375 C 5.242188 16.941406 4.945312 17.386719 4.078125 18.109375 C 5.804688 12.484375 10.609375 7.429688 15.726562 4.671875 Z M 15.726562 4.671875 "/>
<path style=" stroke:none;fill-rule:nonzero;fill:rgb(86.666667%,51.764709%,34.509805%);fill-opacity:1;" d="M 50.097656 10.222656 C 50.972656 10.605469 50.972656 10.605469 51.554688 11.097656 C 51.554688 11.386719 51.554688 11.675781 51.554688 11.976562 C 51.398438 11.910156 51.242188 11.84375 51.085938 11.773438 C 50.878906 11.6875 50.671875 11.605469 50.460938 11.519531 C 50.257812 11.433594 50.054688 11.347656 49.847656 11.261719 C 49.121094 11.070312 48.753906 11.121094 48.058594 11.390625 C 47.382812 11.941406 47.382812 11.941406 47.40625 12.84375 C 47.410156 13.214844 47.410156 13.585938 47.414062 13.972656 C 47.414062 14.175781 47.414062 14.382812 47.414062 14.59375 C 47.417969 15.273438 47.421875 15.953125 47.429688 16.636719 C 47.429688 17.109375 47.433594 17.582031 47.433594 18.054688 C 47.4375 19.300781 47.445312 20.550781 47.453125 21.796875 C 47.464844 23.789062 47.472656 25.785156 47.480469 27.777344 C 47.484375 28.472656 47.488281 29.167969 47.492188 29.863281 C 47.496094 30.292969 47.496094 30.722656 47.5 31.148438 C 47.503906 31.523438 47.503906 31.894531 47.507812 32.28125 C 47.476562 33.230469 47.367188 34.117188 47.183594 35.050781 C 47.089844 35.050781 46.992188 35.050781 46.894531 35.050781 C 46.871094 31.941406 46.859375 28.835938 46.847656 25.726562 C 46.84375 24.285156 46.835938 22.839844 46.828125 21.398438 C 46.816406 20.007812 46.8125 18.613281 46.808594 17.222656 C 46.808594 16.691406 46.804688 16.160156 46.800781 15.628906 C 46.792969 14.882812 46.792969 14.140625 46.792969 13.398438 C 46.789062 13.175781 46.789062 12.957031 46.785156 12.726562 C 46.789062 11.871094 46.792969 11.253906 47.265625 10.523438 C 48.152344 9.992188 49.109375 10.078125 50.097656 10.222656 Z M 50.097656 10.222656 "/>
<path style=" stroke:none;fill-rule:nonzero;fill:rgb(66.666669%,7.058824%,33.725491%);fill-opacity:1;" d="M 3.785156 18.109375 C 4.167969 19.257812 3.886719 19.796875 3.511719 20.9375 C 3.402344 21.28125 3.292969 21.628906 3.175781 21.980469 C 3.046875 22.378906 3.046875 22.378906 2.914062 22.78125 C 3.394531 22.589844 3.875 22.398438 4.367188 22.199219 C 4.367188 22.488281 4.367188 22.777344 4.367188 23.074219 C 4.082031 23.171875 3.792969 23.265625 3.496094 23.367188 C 3.023438 24.3125 2.792969 25.246094 2.621094 26.289062 C 2.570312 26.582031 2.523438 26.875 2.472656 27.179688 C 2.050781 30.582031 1.910156 34.457031 3.203125 37.679688 C 3.394531 37.871094 3.589844 38.0625 3.785156 38.261719 C 3.59375 38.550781 3.402344 38.839844 3.203125 39.136719 C 0.683594 33.703125 0.671875 26.4375 2.703125 20.835938 C 3.050781 19.921875 3.414062 19.011719 3.785156 18.109375 Z M 3.785156 18.109375 "/>
<path style=" stroke:none;fill-rule:nonzero;fill:rgb(86.274511%,29.803923%,41.176471%);fill-opacity:1;" d="M 28.253906 18.691406 C 28.925781 18.691406 29.597656 18.691406 30.292969 18.691406 C 30.238281 19.019531 30.183594 19.34375 30.128906 19.679688 C 29.90625 20.6875 29.90625 20.6875 30.292969 21.320312 C 30.285156 21.683594 30.277344 22.042969 30.273438 22.417969 C 30.257812 23.769531 30.4375 24.90625 31.347656 25.957031 C 31.480469 26.066406 31.613281 26.175781 31.746094 26.289062 C 32.035156 26.191406 32.324219 26.09375 32.621094 25.996094 C 32.523438 26.574219 32.429688 27.152344 32.332031 27.746094 C 31.367188 27.347656 30.972656 27 30.5 26.070312 C 30.386719 25.855469 30.273438 25.640625 30.160156 25.417969 C 30.046875 25.191406 29.933594 24.96875 29.816406 24.734375 C 29.703125 24.511719 29.589844 24.292969 29.46875 24.0625 C 27.828125 20.863281 27.828125 20.863281 28.253906 18.691406 Z M 28.253906 18.691406 "/>
<path style=" stroke:none;fill-rule:nonzero;fill:rgb(76.47059%,32.941177%,38.82353%);fill-opacity:1;" d="M 11.359375 39.722656 C 11.53125 40.261719 11.53125 40.261719 11.652344 40.890625 C 11.363281 41.378906 11.070312 41.867188 10.777344 42.351562 C 10.777344 42.59375 10.777344 42.832031 10.777344 43.082031 C 10.777344 44.023438 10.425781 44.507812 9.902344 45.273438 C 10.40625 46.222656 10.40625 46.222656 11.359375 46.441406 C 11.167969 46.730469 10.976562 47.019531 10.777344 47.316406 C 10.488281 47.316406 10.199219 47.316406 9.902344 47.316406 C 9.769531 48.441406 9.769531 48.441406 10.304688 48.90625 C 10.460938 49.054688 10.617188 49.207031 10.777344 49.363281 C 11.121094 50.144531 11.121094 50.144531 11.359375 50.820312 C 10.269531 50.457031 9.660156 49.769531 9.046875 48.832031 C 8.386719 47.46875 8.523438 45.929688 8.984375 44.515625 C 9.316406 43.765625 9.671875 43.039062 10.046875 42.316406 C 10.171875 42.0625 10.296875 41.8125 10.425781 41.554688 C 10.734375 40.941406 11.042969 40.332031 11.359375 39.722656 Z M 11.359375 39.722656 "/>
<path style=" stroke:none;fill-rule:nonzero;fill:rgb(86.274511%,11.764706%,44.705883%);fill-opacity:1;" d="M 2.621094 35.339844 C 2.910156 35.4375 3.199219 35.535156 3.496094 35.632812 C 3.398438 35.828125 3.304688 36.019531 3.203125 36.21875 C 3.683594 36.21875 4.164062 36.21875 4.660156 36.21875 C 4.601562 36.484375 4.539062 36.746094 4.476562 37.019531 C 4.363281 38.003906 4.425781 38.332031 4.953125 39.136719 C 5.070312 38.945312 5.191406 38.753906 5.316406 38.554688 C 5.484375 38.363281 5.652344 38.167969 5.824219 37.96875 C 6.210938 37.96875 6.59375 37.96875 6.992188 37.96875 C 7.085938 37.488281 7.183594 37.007812 7.28125 36.511719 C 7.472656 36.511719 7.667969 36.511719 7.863281 36.511719 C 7.453125 37.917969 6.863281 39.054688 6.117188 40.308594 C 4.476562 40.378906 4.476562 40.378906 3.496094 39.722656 C 3.484375 39.234375 3.484375 38.75 3.496094 38.261719 C 3.304688 38.070312 3.109375 37.875 2.914062 37.679688 C 2.746094 36.902344 2.699219 36.132812 2.621094 35.339844 Z M 2.621094 35.339844 "/>
<path style=" stroke:none;fill-rule:nonzero;fill:rgb(70.980394%,42.745098%,30.588236%);fill-opacity:1;" d="M 42.234375 53.742188 C 43 53.742188 43.769531 53.742188 44.5625 53.742188 C 42.648438 56.027344 37.574219 57.351562 34.761719 57.609375 C 34.113281 57.613281 34.113281 57.613281 33.203125 57.539062 C 33.203125 57.441406 33.203125 57.347656 33.203125 57.246094 C 33.402344 57.210938 33.597656 57.175781 33.800781 57.140625 C 34.191406 57.066406 34.191406 57.066406 34.585938 56.992188 C 34.972656 56.921875 34.972656 56.921875 35.367188 56.847656 C 36.109375 56.695312 36.109375 56.695312 36.703125 56.367188 C 37.378906 56.03125 37.996094 55.921875 38.738281 55.789062 C 39.5 55.566406 40.253906 55.328125 41.007812 55.09375 C 41.652344 54.910156 41.652344 54.910156 42.234375 54.910156 C 42.234375 54.523438 42.234375 54.140625 42.234375 53.742188 Z M 42.234375 53.742188 "/>
<path style=" stroke:none;fill-rule:nonzero;fill:rgb(88.627452%,61.176473%,23.137255%);fill-opacity:1;" d="M 57.667969 30.085938 C 58.261719 30.742188 58.53125 31.109375 58.605469 32.007812 C 58.433594 33.738281 58.179688 34.8125 57.085938 36.21875 C 56.992188 36.601562 56.894531 36.988281 56.796875 37.386719 C 56.507812 36.421875 56.21875 35.457031 55.921875 34.464844 C 56.308594 34.175781 56.691406 33.886719 57.085938 33.589844 C 57.351562 32.730469 57.351562 32.730469 57.453125 31.78125 C 57.496094 31.464844 57.539062 31.148438 57.582031 30.820312 C 57.613281 30.578125 57.640625 30.335938 57.667969 30.085938 Z M 57.667969 30.085938 "/>
<path style=" stroke:none;fill-rule:nonzero;fill:rgb(73.725492%,36.078432%,34.509805%);fill-opacity:1;" d="M 22.445312 33.261719 C 22.699219 33.261719 22.949219 33.265625 23.210938 33.269531 C 23.824219 33.273438 24.433594 33.285156 25.046875 33.296875 C 25.046875 33.488281 25.046875 33.683594 25.046875 33.882812 C 24.488281 33.945312 24.488281 33.945312 23.917969 34.007812 C 23.226562 34.085938 22.765625 34.152344 22.136719 34.464844 C 21.441406 34.394531 20.75 34.296875 20.0625 34.191406 C 19.6875 34.132812 19.3125 34.078125 18.929688 34.019531 C 18.640625 33.972656 18.355469 33.929688 18.058594 33.882812 C 17.960938 34.074219 17.867188 34.265625 17.765625 34.464844 C 17.574219 34.367188 17.382812 34.273438 17.183594 34.171875 C 17.183594 34.367188 17.183594 34.558594 17.183594 34.757812 C 16.894531 34.949219 16.609375 35.144531 16.3125 35.339844 C 16.023438 35.773438 16.023438 35.773438 15.726562 36.21875 C 15.535156 36.023438 15.34375 35.832031 15.144531 35.632812 C 14.953125 35.539062 14.761719 35.441406 14.5625 35.339844 C 14.894531 35.105469 15.226562 34.875 15.5625 34.648438 C 15.75 34.519531 15.9375 34.390625 16.128906 34.257812 C 18.136719 33.269531 20.246094 33.214844 22.445312 33.261719 Z M 22.445312 33.261719 "/>
<path style=" stroke:none;fill-rule:nonzero;fill:rgb(72.941178%,7.450981%,36.078432%);fill-opacity:1;" d="M 3.785156 18.109375 C 4.167969 19.257812 3.886719 19.796875 3.511719 20.9375 C 3.402344 21.28125 3.292969 21.628906 3.175781 21.980469 C 3.089844 22.246094 3.003906 22.511719 2.914062 22.78125 C 3.394531 22.589844 3.875 22.398438 4.367188 22.199219 C 4.367188 22.488281 4.367188 22.777344 4.367188 23.074219 C 4.082031 23.171875 3.792969 23.265625 3.496094 23.367188 C 3.121094 24.113281 2.917969 24.789062 2.765625 25.613281 C 2.621094 26.289062 2.621094 26.289062 2.039062 26.871094 C 1.757812 23.523438 2.46875 21.136719 3.785156 18.109375 Z M 3.785156 18.109375 "/>
<path style=" stroke:none;fill-rule:nonzero;fill:rgb(77.64706%,9.411765%,38.82353%);fill-opacity:1;" d="M 8.445312 10.808594 C 8.445312 11.714844 8.3125 12.542969 8.15625 13.4375 C 7.964844 13.4375 7.769531 13.4375 7.574219 13.4375 C 7.574219 13.628906 7.574219 13.820312 7.574219 14.019531 C 6.566406 14.894531 6.566406 14.894531 5.824219 14.894531 C 5.753906 15.210938 5.679688 15.523438 5.605469 15.84375 C 5.242188 16.941406 4.945312 17.386719 4.078125 18.109375 C 4.917969 15.324219 6.480469 12.925781 8.445312 10.808594 Z M 8.445312 10.808594 "/>
<path style=" stroke:none;fill-rule:nonzero;fill:rgb(78.431374%,17.254902%,41.176471%);fill-opacity:1;" d="M 12.816406 23.367188 C 13.199219 23.460938 13.585938 23.558594 13.980469 23.660156 C 13.804688 24.78125 13.464844 25.664062 12.941406 26.671875 C 12.808594 26.929688 12.679688 27.1875 12.542969 27.453125 C 12.441406 27.644531 12.335938 27.839844 12.234375 28.039062 C 11.652344 27.164062 11.652344 27.164062 11.757812 26.433594 C 11.851562 26.070312 11.851562 26.070312 11.941406 25.703125 C 11.941406 25.414062 11.941406 25.125 11.941406 24.828125 C 12.21875 24.332031 12.507812 23.84375 12.816406 23.367188 Z M 12.816406 23.367188 "/>
<path style=" stroke:none;fill-rule:nonzero;fill:rgb(83.137256%,21.960784%,40.392157%);fill-opacity:1;" d="M 21.261719 18.109375 C 21.648438 18.109375 22.03125 18.109375 22.425781 18.109375 C 22.738281 18.636719 22.738281 18.636719 23.007812 19.277344 C 22.914062 19.566406 22.816406 19.855469 22.71875 20.152344 C 22.621094 19.769531 22.527344 19.382812 22.425781 18.984375 C 22.042969 19.082031 21.660156 19.179688 21.261719 19.277344 C 21.261719 19.664062 21.261719 20.046875 21.261719 20.445312 C 21.453125 20.636719 21.648438 20.832031 21.84375 21.03125 C 21.652344 21.414062 21.460938 21.800781 21.261719 22.199219 C 20.683594 22.199219 20.109375 22.199219 19.515625 22.199219 C 19.949219 20.746094 20.5625 19.445312 21.261719 18.109375 Z M 21.261719 18.109375 "/>
<path style=" stroke:none;fill-rule:nonzero;fill:rgb(81.568629%,34.509805%,38.82353%);fill-opacity:1;" d="M 13.980469 35.632812 C 14.363281 35.828125 14.75 36.019531 15.144531 36.21875 C 14.953125 36.21875 14.761719 36.21875 14.5625 36.21875 C 14.039062 37.375 13.835938 38.460938 13.6875 39.722656 C 13.496094 39.53125 13.304688 39.335938 13.105469 39.136719 C 12.53125 39.429688 12.53125 39.429688 11.941406 39.722656 C 11.84375 39.53125 11.75 39.335938 11.652344 39.136719 C 12.816406 37.386719 12.816406 37.386719 13.980469 35.632812 Z M 13.980469 35.632812 "/>
<path style=" stroke:none;fill-rule:nonzero;fill:rgb(89.411765%,6.27451%,44.705883%);fill-opacity:1;" d="M 4.660156 17.523438 C 4.851562 17.621094 5.042969 17.71875 5.242188 17.816406 C 5.148438 18.035156 5.050781 18.25 4.953125 18.472656 C 4.59375 19.316406 4.59375 19.316406 4.660156 20.445312 C 4.660156 21.03125 4.660156 21.613281 4.660156 22.199219 C 4.082031 22.390625 3.507812 22.582031 2.914062 22.78125 C 3.058594 21.113281 3.4375 18.753906 4.660156 17.523438 Z M 4.660156 17.523438 "/>
<path style=" stroke:none;fill-rule:nonzero;fill:rgb(83.529413%,15.686275%,43.137255%);fill-opacity:1;" d="M 9.902344 28.039062 C 10.253906 28.113281 10.253906 28.113281 10.613281 28.1875 C 11.351562 28.410156 11.351562 28.410156 11.941406 28.039062 C 11.460938 29.699219 10.691406 31.183594 9.902344 32.710938 C 9.808594 32.710938 9.710938 32.710938 9.613281 32.710938 C 9.636719 32.542969 9.660156 32.375 9.6875 32.199219 C 9.863281 30.828125 9.886719 29.703125 9.613281 28.332031 C 9.707031 28.234375 9.804688 28.140625 9.902344 28.039062 Z M 9.902344 28.039062 "/>
<path style=" stroke:none;fill-rule:nonzero;fill:rgb(75.686276%,42.745098%,34.901962%);fill-opacity:1;" d="M 30.582031 33.296875 C 31.449219 33.273438 32.316406 33.257812 33.1875 33.242188 C 33.425781 33.234375 33.667969 33.226562 33.917969 33.21875 C 35.679688 33.199219 37.105469 33.515625 38.738281 34.171875 C 38.160156 34.460938 38.160156 34.460938 37.574219 34.757812 C 37.476562 34.566406 37.378906 34.371094 37.28125 34.171875 C 34.976562 34.171875 32.667969 34.171875 30.292969 34.171875 C 30.386719 33.882812 30.484375 33.59375 30.582031 33.296875 Z M 30.582031 33.296875 "/>
<path style=" stroke:none;fill-rule:nonzero;fill:rgb(78.431374%,34.509805%,36.470589%);fill-opacity:1;" d="M 12.816406 51.988281 C 13.121094 52.042969 13.429688 52.097656 13.742188 52.15625 C 14.730469 52.269531 15.367188 52.246094 16.3125 51.988281 C 16.214844 52.375 16.117188 52.761719 16.019531 53.160156 C 16.210938 53.253906 16.402344 53.351562 16.601562 53.449219 C 16.898438 53.738281 17.191406 54.027344 17.476562 54.328125 C 16.996094 54.535156 16.996094 54.535156 16.3125 54.617188 C 15.507812 54.21875 15.507812 54.21875 14.652344 53.652344 C 14.371094 53.464844 14.085938 53.28125 13.796875 53.089844 C 13.105469 52.574219 13.105469 52.574219 12.816406 51.988281 Z M 12.816406 51.988281 "/>
<path style=" stroke:none;fill-rule:nonzero;fill:rgb(76.078433%,48.627451%,32.156864%);fill-opacity:1;" d="M 50.097656 10.222656 C 50.972656 10.605469 50.972656 10.605469 51.554688 11.097656 C 51.554688 11.386719 51.554688 11.675781 51.554688 11.976562 C 51.398438 11.910156 51.242188 11.84375 51.085938 11.773438 C 50.878906 11.6875 50.671875 11.605469 50.460938 11.519531 C 50.257812 11.433594 50.054688 11.347656 49.847656 11.261719 C 49.121094 11.070312 48.753906 11.121094 48.058594 11.390625 C 47.371094 12.082031 47.332031 12.496094 47.183594 13.4375 C 47.089844 13.4375 46.992188 13.4375 46.894531 13.4375 C 46.789062 11.308594 46.789062 11.308594 47.183594 10.515625 C 48.132812 10.039062 49.074219 10.074219 50.097656 10.222656 Z M 50.097656 10.222656 "/>
<path style=" stroke:none;fill-rule:nonzero;fill:rgb(78.823531%,13.725491%,40.392157%);fill-opacity:1;" d="M 9.613281 32.710938 C 9.433594 34.132812 8.816406 35.265625 8.15625 36.511719 C 7.457031 35.285156 7.527344 34.394531 7.574219 33.003906 C 8.445312 32.710938 8.445312 32.710938 9.613281 32.710938 Z M 9.613281 32.710938 "/>
<path style=" stroke:none;fill-rule:nonzero;fill:rgb(74.901962%,36.862746%,34.901962%);fill-opacity:1;" d="M 18.640625 54.328125 C 18.640625 54.519531 18.640625 54.710938 18.640625 54.910156 C 19.3125 55.007812 19.988281 55.105469 20.679688 55.203125 C 20.679688 55.394531 20.679688 55.589844 20.679688 55.789062 C 21.0625 55.882812 21.449219 55.980469 21.84375 56.078125 C 21.84375 56.273438 21.84375 56.464844 21.84375 56.664062 C 20.007812 56.339844 18.53125 55.808594 16.894531 54.910156 C 17.765625 54.328125 17.765625 54.328125 18.640625 54.328125 Z M 18.640625 54.328125 "/>
<path style=" stroke:none;fill-rule:nonzero;fill:rgb(90.196079%,52.941179%,29.019609%);fill-opacity:1;" d="M 44.273438 51.40625 C 44.65625 51.503906 45.039062 51.597656 45.4375 51.699219 C 45.339844 52.582031 45.25 53.046875 44.636719 53.707031 C 43.808594 54.121094 43.394531 54.007812 42.523438 53.742188 C 42.523438 53.550781 42.523438 53.355469 42.523438 53.160156 C 42.757812 53.019531 42.992188 52.882812 43.234375 52.738281 C 44.066406 52.339844 44.066406 52.339844 44.273438 51.40625 Z M 44.273438 51.40625 "/>
<path style=" stroke:none;fill-rule:nonzero;fill:rgb(71.764708%,12.156863%,36.862746%);fill-opacity:1;" d="M 7.28125 36.511719 C 7.472656 36.511719 7.667969 36.511719 7.863281 36.511719 C 7.453125 37.917969 6.863281 39.054688 6.117188 40.308594 C 4.476562 40.378906 4.476562 40.378906 3.496094 39.722656 C 3.589844 39.53125 3.6875 39.335938 3.785156 39.136719 C 4.21875 39.429688 4.21875 39.429688 4.660156 39.722656 C 5.042969 39.722656 5.429688 39.722656 5.824219 39.722656 C 5.632812 39.433594 5.441406 39.144531 5.242188 38.847656 C 5.433594 38.558594 5.628906 38.269531 5.824219 37.96875 C 6.210938 37.96875 6.59375 37.96875 6.992188 37.96875 C 7.085938 37.488281 7.183594 37.007812 7.28125 36.511719 Z M 7.28125 36.511719 "/>
<path style=" stroke:none;fill-rule:nonzero;fill:rgb(72.156864%,14.509805%,36.862746%);fill-opacity:1;" d="M 15.726562 4.671875 C 15.921875 4.769531 16.113281 4.867188 16.3125 4.964844 C 16.214844 5.253906 16.117188 5.542969 16.019531 5.839844 C 15.730469 5.933594 15.441406 6.023438 15.144531 6.117188 C 14.714844 6.269531 14.714844 6.269531 14.273438 6.425781 C 13.988281 7.019531 13.988281 7.019531 13.980469 7.59375 C 13.0625 7.839844 12.3125 7.886719 11.359375 7.886719 C 11.8125 7.515625 12.269531 7.144531 12.722656 6.773438 C 12.976562 6.566406 13.230469 6.359375 13.492188 6.144531 C 14.21875 5.589844 14.914062 5.089844 15.726562 4.671875 Z M 15.726562 4.671875 "/>
<path style=" stroke:none;fill-rule:nonzero;fill:rgb(69.01961%,31.37255%,33.333334%);fill-opacity:1;" d="M 32.914062 1.460938 C 35.78125 1.292969 38.429688 2.144531 41.066406 3.210938 C 40.492188 3.503906 40.492188 3.503906 39.902344 3.796875 C 39.902344 3.605469 39.902344 3.410156 39.902344 3.210938 C 39.132812 3.210938 38.363281 3.210938 37.574219 3.210938 C 37.476562 2.921875 37.378906 2.632812 37.28125 2.335938 C 35.117188 2.046875 35.117188 2.046875 32.914062 1.753906 C 32.914062 1.65625 32.914062 1.558594 32.914062 1.460938 Z M 32.914062 1.460938 "/>
<path style=" stroke:none;fill-rule:nonzero;fill:rgb(73.725492%,48.627451%,31.764707%);fill-opacity:1;" d="M 43.398438 40.015625 C 44.210938 41.015625 44.777344 42.113281 45.347656 43.265625 C 45.4375 43.449219 45.53125 43.632812 45.628906 43.824219 C 46.3125 45.199219 46.3125 45.199219 46.3125 45.855469 C 46.117188 45.855469 45.925781 45.855469 45.726562 45.855469 C 45.703125 45.628906 45.679688 45.398438 45.65625 45.164062 C 45.582031 44.910156 45.511719 44.65625 45.4375 44.394531 C 45.25 44.308594 45.0625 44.222656 44.871094 44.136719 C 44.273438 43.8125 44.273438 43.8125 43.96875 43.222656 C 43.898438 42.996094 43.832031 42.765625 43.761719 42.535156 C 43.691406 42.308594 43.621094 42.082031 43.546875 41.851562 C 43.398438 41.183594 43.398438 41.183594 43.398438 40.015625 Z M 43.398438 40.015625 "/>
<path style=" stroke:none;fill-rule:nonzero;fill:rgb(78.431374%,53.725493%,29.411766%);fill-opacity:1;" d="M 53.882812 14.3125 C 54.664062 15.007812 55.082031 15.730469 55.539062 16.667969 C 55.667969 16.921875 55.792969 17.179688 55.925781 17.445312 C 56.214844 18.109375 56.214844 18.109375 56.214844 18.691406 C 55.925781 18.691406 55.636719 18.691406 55.339844 18.691406 C 55.339844 18.5 55.339844 18.308594 55.339844 18.109375 C 54.957031 17.917969 54.570312 17.722656 54.175781 17.523438 C 54.234375 17.351562 54.292969 17.175781 54.355469 16.996094 C 54.554688 16.273438 54.554688 16.273438 53.882812 15.480469 C 53.882812 15.09375 53.882812 14.710938 53.882812 14.3125 Z M 53.882812 14.3125 "/>
<path style=" stroke:none;fill-rule:nonzero;fill:rgb(74.117649%,29.803923%,35.686275%);fill-opacity:1;" d="M 11.359375 39.722656 C 11.53125 40.261719 11.53125 40.261719 11.652344 40.890625 C 11.363281 41.378906 11.070312 41.867188 10.777344 42.351562 C 10.777344 42.59375 10.777344 42.832031 10.777344 43.082031 C 10.777344 44.042969 10.480469 44.519531 9.902344 45.273438 C 9.613281 45.273438 9.328125 45.273438 9.027344 45.273438 C 9.210938 43.941406 9.746094 42.851562 10.359375 41.675781 C 10.5 41.394531 10.5 41.394531 10.648438 41.105469 C 10.882812 40.644531 11.121094 40.183594 11.359375 39.722656 Z M 11.359375 39.722656 "/>
<path style=" stroke:none;fill-rule:nonzero;fill:rgb(86.274511%,36.078432%,40.784314%);fill-opacity:1;" d="M 32.332031 27.746094 C 33.292969 27.84375 34.253906 27.941406 35.242188 28.039062 C 35.242188 28.230469 35.242188 28.425781 35.242188 28.625 C 35.433594 28.625 35.628906 28.625 35.824219 28.625 C 35.921875 28.429688 36.015625 28.238281 36.117188 28.039062 C 36.117188 28.230469 36.117188 28.425781 36.117188 28.625 C 36.691406 28.429688 37.269531 28.238281 37.863281 28.039062 C 37.960938 28.230469 38.054688 28.425781 38.15625 28.625 C 37.339844 29.03125 36.644531 28.976562 35.734375 28.988281 C 35.40625 28.996094 35.074219 29.003906 34.738281 29.011719 C 33.703125 28.90625 33.15625 28.65625 32.332031 28.039062 C 32.332031 27.941406 32.332031 27.847656 32.332031 27.746094 Z M 32.332031 27.746094 "/>
<path style=" stroke:none;fill-rule:nonzero;fill:rgb(74.117649%,29.803923%,36.862746%);fill-opacity:1;" d="M 30 23.660156 C 30.289062 23.804688 30.289062 23.804688 30.582031 23.949219 C 30.625 24.179688 30.667969 24.410156 30.710938 24.644531 C 30.890625 25.484375 31.101562 25.75 31.746094 26.289062 C 32.035156 26.191406 32.324219 26.09375 32.621094 25.996094 C 32.523438 26.574219 32.429688 27.152344 32.332031 27.746094 C 31.175781 27.375 30.765625 26.671875 30.21875 25.652344 C 29.9375 24.964844 29.910156 24.390625 30 23.660156 Z M 30 23.660156 "/>
<path style=" stroke:none;fill-rule:nonzero;fill:rgb(88.235295%,37.64706%,38.431373%);fill-opacity:1;" d="M 37.863281 2.921875 C 39.765625 3.101562 39.765625 3.101562 40.46875 3.667969 C 40.570312 3.808594 40.671875 3.945312 40.777344 4.089844 C 40.488281 4.28125 40.199219 4.476562 39.902344 4.671875 C 39.902344 4.480469 39.902344 4.289062 39.902344 4.089844 C 39.734375 4.191406 39.566406 4.292969 39.394531 4.398438 C 38.632812 4.71875 38.332031 4.652344 37.574219 4.382812 C 37.667969 3.898438 37.765625 3.417969 37.863281 2.921875 Z M 37.863281 2.921875 "/>
<path style=" stroke:none;fill-rule:nonzero;fill:rgb(87.843138%,55.29412%,30.980393%);fill-opacity:1;" d="M 44.5625 44.394531 C 44.851562 44.394531 45.140625 44.394531 45.4375 44.394531 C 45.53125 44.878906 45.628906 45.359375 45.726562 45.855469 C 45.921875 45.855469 46.113281 45.855469 46.3125 45.855469 C 46.3125 46.722656 46.3125 47.589844 46.3125 48.484375 C 46.214844 48.484375 46.117188 48.484375 46.019531 48.484375 C 45.988281 48.261719 45.960938 48.039062 45.929688 47.808594 C 45.707031 46.945312 45.488281 46.734375 44.855469 46.148438 C 44.492188 45.546875 44.492188 45.546875 44.273438 44.980469 C 44.367188 44.789062 44.464844 44.59375 44.5625 44.394531 Z M 44.5625 44.394531 "/>
<path style=" stroke:none;fill-rule:nonzero;fill:rgb(76.862746%,52.941179%,26.274511%);fill-opacity:1;" d="M 57.667969 34.757812 C 58.046875 35.886719 57.734375 36.640625 57.398438 37.734375 C 57.3125 38.019531 57.3125 38.019531 57.222656 38.3125 C 57.082031 38.78125 56.941406 39.253906 56.796875 39.722656 C 56.605469 39.625 56.410156 39.53125 56.214844 39.429688 C 56.214844 38.851562 56.214844 38.273438 56.214844 37.679688 C 56.5 37.582031 56.789062 37.484375 57.085938 37.386719 C 56.992188 36.902344 56.894531 36.421875 56.796875 35.925781 C 56.988281 35.925781 57.179688 35.925781 57.378906 35.925781 C 57.476562 35.539062 57.570312 35.15625 57.667969 34.757812 Z M 57.667969 34.757812 "/>
<path style=" stroke:none;fill-rule:nonzero;fill:rgb(89.019608%,52.941179%,30.980393%);fill-opacity:1;" d="M 41.941406 39.136719 C 42.328125 39.234375 42.710938 39.332031 43.105469 39.429688 C 43.300781 40.203125 43.492188 40.972656 43.6875 41.765625 C 43.113281 42.054688 43.113281 42.054688 42.523438 42.351562 C 42.332031 41.292969 42.140625 40.230469 41.941406 39.136719 Z M 41.941406 39.136719 "/>
<path style=" stroke:none;fill-rule:nonzero;fill:rgb(88.627452%,60.784316%,25.098041%);fill-opacity:1;" d="M 56.503906 23.074219 C 56.792969 23.074219 57.082031 23.074219 57.378906 23.074219 C 57.570312 24.039062 57.761719 25.003906 57.960938 25.996094 C 57.382812 25.609375 56.808594 25.222656 56.214844 24.828125 C 56.316406 24.644531 56.417969 24.464844 56.523438 24.277344 C 56.613281 24.074219 56.703125 23.871094 56.796875 23.660156 C 56.699219 23.464844 56.605469 23.273438 56.503906 23.074219 Z M 56.503906 23.074219 "/>
<path style=" stroke:none;fill-rule:nonzero;fill:rgb(89.019608%,31.37255%,40.392157%);fill-opacity:1;" d="M 30.875 23.367188 C 31.164062 23.460938 31.449219 23.558594 31.746094 23.660156 C 31.746094 24.140625 31.746094 24.621094 31.746094 25.117188 C 31.84375 25.117188 31.941406 25.117188 32.039062 25.117188 C 32.039062 25.601562 32.039062 26.082031 32.039062 26.578125 C 31.847656 26.484375 31.65625 26.386719 31.457031 26.289062 C 31.457031 26.09375 31.457031 25.902344 31.457031 25.703125 C 31.167969 25.605469 30.878906 25.511719 30.582031 25.410156 C 30.679688 24.734375 30.773438 24.0625 30.875 23.367188 Z M 30.875 23.367188 "/>
<path style=" stroke:none;fill-rule:nonzero;fill:rgb(69.803923%,18.82353%,36.470589%);fill-opacity:1;" d="M 22.425781 2.628906 C 21.851562 2.726562 21.273438 2.820312 20.679688 2.921875 C 20.582031 3.210938 20.488281 3.5 20.386719 3.796875 C 19.714844 3.796875 19.042969 3.796875 18.347656 3.796875 C 18.253906 3.988281 18.15625 4.183594 18.058594 4.382812 C 17.867188 4.1875 17.671875 3.996094 17.476562 3.796875 C 18.082031 3.542969 18.6875 3.296875 19.296875 3.046875 C 19.632812 2.910156 19.972656 2.769531 20.320312 2.628906 C 21.222656 2.347656 21.574219 2.273438 22.425781 2.628906 Z M 22.425781 2.628906 "/>
<path style=" stroke:none;fill-rule:nonzero;fill:rgb(88.235295%,34.901962%,40.784314%);fill-opacity:1;" d="M 11.066406 41.183594 C 11.652344 41.765625 11.652344 41.765625 11.675781 42.378906 C 11.648438 42.609375 11.621094 42.84375 11.597656 43.082031 C 11.5625 43.429688 11.5625 43.429688 11.527344 43.785156 C 11.359375 44.394531 11.359375 44.394531 10.484375 44.980469 C 10.46875 44.566406 10.457031 44.152344 10.449219 43.738281 C 10.441406 43.507812 10.433594 43.277344 10.429688 43.039062 C 10.492188 42.289062 10.691406 41.828125 11.066406 41.183594 Z M 11.066406 41.183594 "/>
<path style=" stroke:none;fill-rule:nonzero;fill:rgb(75.686276%,45.882353%,34.117648%);fill-opacity:1;" d="M 38.738281 34.464844 C 39.871094 34.632812 40.546875 35.132812 41.359375 35.925781 C 41.597656 36.730469 41.597656 36.730469 41.652344 37.386719 C 40.523438 37.007812 40.269531 36.625 39.613281 35.632812 C 39.417969 35.441406 39.226562 35.25 39.027344 35.050781 C 38.933594 34.855469 38.835938 34.664062 38.738281 34.464844 Z M 38.738281 34.464844 "/>
<path style=" stroke:none;fill-rule:nonzero;fill:rgb(88.627452%,13.725491%,43.529412%);fill-opacity:1;" d="M 12.523438 7.300781 C 13.089844 7.519531 13.089844 7.519531 13.6875 7.886719 C 13.90625 8.507812 13.90625 8.507812 13.980469 9.054688 C 13.308594 9.054688 12.636719 9.054688 11.941406 9.054688 C 12.195312 7.628906 12.195312 7.628906 12.523438 7.300781 Z M 12.523438 7.300781 "/>
<path style=" stroke:none;fill-rule:nonzero;fill:rgb(89.411765%,50.980395%,31.764707%);fill-opacity:1;" d="M 41.652344 53.742188 C 41.84375 54.128906 42.035156 54.511719 42.234375 54.910156 C 41.464844 55.105469 40.695312 55.296875 39.902344 55.496094 C 39.902344 55.109375 39.902344 54.722656 39.902344 54.328125 C 40.480469 54.132812 41.054688 53.941406 41.652344 53.742188 Z M 41.652344 53.742188 "/>
<path style=" stroke:none;fill-rule:nonzero;fill:rgb(90.588236%,7.843138%,45.882353%);fill-opacity:1;" d="M 2.621094 35.339844 C 2.910156 35.4375 3.199219 35.535156 3.496094 35.632812 C 3.398438 35.828125 3.304688 36.019531 3.203125 36.21875 C 3.683594 36.21875 4.164062 36.21875 4.660156 36.21875 C 4.5625 36.699219 4.46875 37.183594 4.367188 37.679688 C 3.824219 37.585938 3.824219 37.585938 3.203125 37.386719 C 2.621094 36.511719 2.621094 36.511719 2.621094 35.339844 Z M 2.621094 35.339844 "/>
<path style=" stroke:none;fill-rule:nonzero;fill:rgb(68.235296%,20.784314%,34.509805%);fill-opacity:1;" d="M 21.261719 18.109375 C 21.648438 18.109375 22.03125 18.109375 22.425781 18.109375 C 22.738281 18.636719 22.738281 18.636719 23.007812 19.277344 C 22.914062 19.566406 22.816406 19.855469 22.71875 20.152344 C 22.621094 19.769531 22.527344 19.382812 22.425781 18.984375 C 22.042969 19.082031 21.660156 19.179688 21.261719 19.277344 C 21.261719 19.566406 21.261719 19.855469 21.261719 20.152344 C 20.972656 20.25 20.683594 20.347656 20.386719 20.445312 C 20.933594 18.765625 20.933594 18.765625 21.261719 18.109375 Z M 21.261719 18.109375 "/>
<path style=" stroke:none;fill-rule:nonzero;fill:rgb(90.196079%,9.411765%,45.09804%);fill-opacity:1;" d="M 8.445312 11.390625 C 8.542969 11.679688 8.640625 11.96875 8.738281 12.265625 C 8.929688 12.265625 9.121094 12.265625 9.320312 12.265625 C 9.320312 12.75 9.320312 13.230469 9.320312 13.726562 C 9.03125 13.871094 9.03125 13.871094 8.738281 14.019531 C 8.15625 13.726562 8.15625 13.726562 7.9375 13.199219 C 7.847656 12.414062 8.042969 12.054688 8.445312 11.390625 Z M 8.445312 11.390625 "/>
<path style=" stroke:none;fill-rule:nonzero;fill:rgb(79.607844%,57.647061%,24.705882%);fill-opacity:1;" d="M 57.667969 30.085938 C 58.542969 31.253906 58.542969 31.253906 58.566406 32.003906 C 58.527344 32.261719 58.492188 32.519531 58.453125 32.785156 C 58.398438 33.175781 58.398438 33.175781 58.347656 33.574219 C 58.316406 33.773438 58.285156 33.96875 58.253906 34.171875 C 58.058594 34.171875 57.867188 34.171875 57.667969 34.171875 C 57.667969 32.824219 57.667969 31.472656 57.667969 30.085938 Z M 57.667969 30.085938 "/>
<path style=" stroke:none;fill-rule:nonzero;fill:rgb(71.372551%,19.607843%,32.941177%);fill-opacity:1;" d="M 21.554688 8.179688 C 22.273438 8.324219 22.273438 8.324219 23.007812 8.46875 C 23.164062 8.890625 23.316406 9.308594 23.464844 9.730469 C 23.550781 9.964844 23.632812 10.199219 23.722656 10.4375 C 23.882812 11.097656 23.882812 11.097656 23.59375 11.976562 C 23.394531 11.605469 23.203125 11.234375 23.007812 10.863281 C 22.847656 10.550781 22.847656 10.550781 22.683594 10.234375 C 22.425781 9.636719 22.425781 9.636719 22.425781 8.761719 C 22.140625 8.761719 21.851562 8.761719 21.554688 8.761719 C 21.554688 8.570312 21.554688 8.375 21.554688 8.179688 Z M 21.554688 8.179688 "/>
<path style=" stroke:none;fill-rule:nonzero;fill:rgb(88.235295%,40.784314%,40.392157%);fill-opacity:1;" d="M 19.421875 34.007812 C 19.660156 34.039062 19.894531 34.070312 20.136719 34.097656 C 20.316406 34.125 20.496094 34.148438 20.679688 34.171875 C 20.582031 34.367188 20.488281 34.558594 20.386719 34.757812 C 19.667969 34.46875 19.667969 34.46875 18.933594 34.171875 C 18.933594 34.367188 18.933594 34.558594 18.933594 34.757812 C 18.453125 34.855469 17.972656 34.949219 17.476562 35.050781 C 17.378906 34.761719 17.285156 34.472656 17.183594 34.171875 C 18.085938 33.871094 18.503906 33.886719 19.421875 34.007812 Z M 19.421875 34.007812 "/>
<path style=" stroke:none;fill-rule:nonzero;fill:rgb(70.980394%,49.411765%,29.411766%);fill-opacity:1;" d="M 50.972656 45.273438 C 51.644531 45.464844 52.316406 45.65625 53.007812 45.855469 C 52.5 46.988281 52.5 46.988281 51.84375 47.316406 C 50.972656 45.929688 50.972656 45.929688 50.972656 45.273438 Z M 50.972656 45.273438 "/>
<path style=" stroke:none;fill-rule:nonzero;fill:rgb(74.509805%,16.078432%,39.215687%);fill-opacity:1;" d="M 9.902344 29.792969 C 10.289062 29.792969 10.671875 29.792969 11.066406 29.792969 C 10.746094 31.109375 10.585938 31.734375 9.613281 32.710938 C 9.707031 31.75 9.804688 30.785156 9.902344 29.792969 Z M 9.902344 29.792969 "/>
<path style=" stroke:none;fill-rule:nonzero;fill:rgb(71.764708%,27.843139%,36.862746%);fill-opacity:1;" d="M 28.253906 19.570312 C 28.347656 19.761719 28.445312 19.953125 28.542969 20.152344 C 28.832031 20.058594 29.121094 19.960938 29.417969 19.863281 C 29.417969 20.054688 29.417969 20.246094 29.417969 20.445312 C 29.226562 20.445312 29.03125 20.445312 28.835938 20.445312 C 29.027344 21.3125 29.21875 22.179688 29.417969 23.074219 C 28.4375 22.089844 28.25 21.488281 27.960938 20.152344 C 28.058594 19.960938 28.152344 19.769531 28.253906 19.570312 Z M 28.253906 19.570312 "/>
<path style=" stroke:none;fill-rule:nonzero;fill:rgb(67.450982%,10.196079%,34.901962%);fill-opacity:1;" d="M 5.824219 14.3125 C 6.117188 14.894531 6.117188 14.894531 5.921875 15.507812 C 5.816406 15.738281 5.714844 15.972656 5.605469 16.210938 C 5.507812 16.441406 5.40625 16.675781 5.300781 16.914062 C 4.953125 17.523438 4.953125 17.523438 4.078125 18.109375 C 4.488281 16.699219 5.078125 15.5625 5.824219 14.3125 Z M 5.824219 14.3125 "/>
<path style=" stroke:none;fill-rule:nonzero;fill:rgb(72.156864%,29.019609%,32.549021%);fill-opacity:1;" d="M 9.320312 48.484375 C 9.847656 48.503906 9.847656 48.503906 10.484375 48.777344 C 10.996094 49.816406 10.996094 49.816406 11.359375 50.820312 C 10.382812 50.417969 9.882812 49.96875 9.320312 49.070312 C 9.320312 48.875 9.320312 48.683594 9.320312 48.484375 Z M 9.320312 48.484375 "/>
<path style=" stroke:none;fill-rule:nonzero;fill:rgb(75.686276%,32.941177%,36.470589%);fill-opacity:1;" d="M 13.980469 35.632812 C 14.363281 35.828125 14.75 36.019531 15.144531 36.21875 C 14.953125 36.21875 14.761719 36.21875 14.5625 36.21875 C 14.492188 36.40625 14.417969 36.589844 14.34375 36.785156 C 13.980469 37.386719 13.980469 37.386719 13.363281 37.605469 C 13.089844 37.640625 13.089844 37.640625 12.816406 37.679688 C 13.167969 36.949219 13.53125 36.3125 13.980469 35.632812 Z M 13.980469 35.632812 "/>
<path style=" stroke:none;fill-rule:nonzero;fill:rgb(86.274511%,7.843138%,42.745098%);fill-opacity:1;" d="M 4.660156 17.523438 C 4.851562 17.621094 5.042969 17.71875 5.242188 17.816406 C 5.109375 18.152344 5.109375 18.152344 4.96875 18.492188 C 4.753906 19.039062 4.554688 19.59375 4.367188 20.152344 C 4.082031 20.25 3.792969 20.347656 3.496094 20.445312 C 3.632812 20.011719 3.773438 19.582031 3.914062 19.148438 C 3.992188 18.910156 4.070312 18.667969 4.148438 18.421875 C 4.367188 17.816406 4.367188 17.816406 4.660156 17.523438 Z M 4.660156 17.523438 "/>
<path style=" stroke:none;fill-rule:nonzero;fill:rgb(89.019608%,34.509805%,39.215687%);fill-opacity:1;" d="M 11.359375 46.148438 C 11.167969 46.535156 10.976562 46.917969 10.777344 47.316406 C 10.296875 47.316406 9.816406 47.316406 9.320312 47.316406 C 9.320312 47.027344 9.320312 46.738281 9.320312 46.441406 C 10.039062 46.082031 10.566406 46.128906 11.359375 46.148438 Z M 11.359375 46.148438 "/>
<path style=" stroke:none;fill-rule:nonzero;fill:rgb(77.64706%,33.725491%,37.64706%);fill-opacity:1;" d="M 16.382812 34.554688 C 16.636719 34.65625 16.636719 34.65625 16.894531 34.757812 C 16.507812 35.238281 16.125 35.722656 15.726562 36.21875 C 15.535156 36.023438 15.34375 35.832031 15.144531 35.632812 C 14.953125 35.539062 14.761719 35.441406 14.5625 35.339844 C 15.566406 34.441406 15.566406 34.441406 16.382812 34.554688 Z M 16.382812 34.554688 "/>
<path style=" stroke:none;fill-rule:nonzero;fill:rgb(74.509805%,30.19608%,34.901962%);fill-opacity:1;" d="M 32.332031 27.746094 C 33.097656 27.84375 33.867188 27.941406 34.660156 28.039062 C 34.757812 28.328125 34.851562 28.617188 34.953125 28.914062 C 33.96875 28.824219 33.96875 28.824219 32.914062 28.625 C 32.71875 28.335938 32.527344 28.046875 32.332031 27.746094 Z M 32.332031 27.746094 "/>
<path style=" stroke:none;fill-rule:nonzero;fill:rgb(78.039217%,48.627451%,31.37255%);fill-opacity:1;" d="M 42.234375 53.742188 C 43 53.742188 43.769531 53.742188 44.5625 53.742188 C 44.21875 54.179688 44.21875 54.179688 43.6875 54.617188 C 42.90625 54.671875 42.90625 54.671875 42.234375 54.617188 C 42.234375 54.328125 42.234375 54.039062 42.234375 53.742188 Z M 42.234375 53.742188 "/>
<path style=" stroke:none;fill-rule:nonzero;fill:rgb(70.588237%,27.058825%,37.254903%);fill-opacity:1;" d="M 26.503906 17.523438 C 27.082031 17.8125 27.082031 17.8125 27.667969 18.109375 C 27.667969 18.398438 27.667969 18.6875 27.667969 18.984375 C 27.863281 19.082031 28.054688 19.179688 28.253906 19.277344 C 27.964844 19.710938 27.964844 19.710938 27.667969 20.152344 C 27.285156 19.285156 26.902344 18.417969 26.503906 17.523438 Z M 26.503906 17.523438 "/>
<path style=" stroke:none;fill-rule:nonzero;fill:rgb(72.549021%,9.411765%,36.470589%);fill-opacity:1;" d="M 7.28125 12.265625 C 7.28125 13.050781 7.25 13.582031 6.992188 14.3125 C 6.703125 14.503906 6.414062 14.699219 6.117188 14.894531 C 6.269531 13.78125 6.550781 13.125 7.28125 12.265625 Z M 7.28125 12.265625 "/>
<path style=" stroke:none;fill-rule:nonzero;fill:rgb(86.666667%,34.117648%,40.392157%);fill-opacity:1;" d="M 32.039062 1.460938 C 33 1.558594 33.960938 1.652344 34.953125 1.753906 C 33.949219 2.421875 33.5 2.390625 32.332031 2.335938 C 32.234375 2.046875 32.136719 1.757812 32.039062 1.460938 Z M 32.039062 1.460938 "/>
<path style=" stroke:none;fill-rule:nonzero;fill:rgb(88.235295%,36.078432%,38.82353%);fill-opacity:1;" d="M 13.398438 51.40625 C 14.070312 51.597656 14.742188 51.792969 15.4375 51.988281 C 15.246094 52.183594 15.050781 52.375 14.855469 52.574219 C 14.089844 52.464844 14.089844 52.464844 13.398438 52.28125 C 13.398438 51.992188 13.398438 51.703125 13.398438 51.40625 Z M 13.398438 51.40625 "/>
<path style=" stroke:none;fill-rule:nonzero;fill:rgb(84.313726%,6.27451%,41.568628%);fill-opacity:1;" d="M 2.332031 23.949219 C 2.914062 24.828125 2.914062 24.828125 2.839844 25.574219 C 2.621094 26.289062 2.621094 26.289062 2.039062 26.871094 C 2.136719 25.90625 2.230469 24.945312 2.332031 23.949219 Z M 2.332031 23.949219 "/>
</g>
</svg>
